<mxfile host="app.diagrams.net" modified="2024-03-14T09:19:36.933Z" agent="Mozilla/5.0 (Windows NT 10.0; Win64; x64) AppleWebKit/537.36 (KHTML, like Gecko) Chrome/122.0.0.0 Safari/537.36" etag="xKzvDZr7HRsRoS_vUiKk" version="24.0.6" type="device">
  <diagram name="Page-1" id="22EuK9iK8F_H3JKf6n9n">
    <mxGraphModel dx="1120" dy="1568" grid="1" gridSize="10" guides="1" tooltips="1" connect="1" arrows="1" fold="1" page="1" pageScale="1" pageWidth="850" pageHeight="1100" math="0" shadow="0">
      <root>
        <mxCell id="0" />
        <mxCell id="1" parent="0" />
        <mxCell id="v4jeL5m17RULmQWQD_8q-3" value="" style="edgeStyle=orthogonalEdgeStyle;rounded=0;orthogonalLoop=1;jettySize=auto;html=1;" edge="1" parent="1" source="v4jeL5m17RULmQWQD_8q-1" target="v4jeL5m17RULmQWQD_8q-2">
          <mxGeometry relative="1" as="geometry" />
        </mxCell>
        <mxCell id="v4jeL5m17RULmQWQD_8q-1" value="&lt;font style=&quot;font-size: 24px;&quot;&gt;START&lt;/font&gt;" style="strokeWidth=2;html=1;shape=mxgraph.flowchart.terminator;whiteSpace=wrap;" vertex="1" parent="1">
          <mxGeometry x="305" y="-1060" width="240" height="80" as="geometry" />
        </mxCell>
        <mxCell id="v4jeL5m17RULmQWQD_8q-5" value="" style="edgeStyle=orthogonalEdgeStyle;rounded=0;orthogonalLoop=1;jettySize=auto;html=1;" edge="1" parent="1" source="v4jeL5m17RULmQWQD_8q-2" target="v4jeL5m17RULmQWQD_8q-4">
          <mxGeometry relative="1" as="geometry" />
        </mxCell>
        <mxCell id="v4jeL5m17RULmQWQD_8q-2" value="&lt;font style=&quot;font-size: 24px;&quot;&gt;USER&lt;/font&gt;" style="whiteSpace=wrap;html=1;strokeWidth=2;" vertex="1" parent="1">
          <mxGeometry x="320" y="-910" width="210" height="60" as="geometry" />
        </mxCell>
        <mxCell id="v4jeL5m17RULmQWQD_8q-7" value="" style="edgeStyle=orthogonalEdgeStyle;rounded=0;orthogonalLoop=1;jettySize=auto;html=1;" edge="1" parent="1" source="v4jeL5m17RULmQWQD_8q-4" target="v4jeL5m17RULmQWQD_8q-6">
          <mxGeometry relative="1" as="geometry" />
        </mxCell>
        <mxCell id="v4jeL5m17RULmQWQD_8q-8" value="&lt;font style=&quot;font-size: 18px;&quot;&gt;NO&lt;/font&gt;" style="edgeLabel;html=1;align=center;verticalAlign=middle;resizable=0;points=[];" vertex="1" connectable="0" parent="v4jeL5m17RULmQWQD_8q-7">
          <mxGeometry x="-0.2421" y="1" relative="1" as="geometry">
            <mxPoint as="offset" />
          </mxGeometry>
        </mxCell>
        <mxCell id="v4jeL5m17RULmQWQD_8q-11" value="" style="edgeStyle=orthogonalEdgeStyle;rounded=0;orthogonalLoop=1;jettySize=auto;html=1;" edge="1" parent="1" source="v4jeL5m17RULmQWQD_8q-4" target="v4jeL5m17RULmQWQD_8q-10">
          <mxGeometry relative="1" as="geometry" />
        </mxCell>
        <mxCell id="v4jeL5m17RULmQWQD_8q-4" value="&lt;font style=&quot;font-size: 24px;&quot;&gt;LOGIN&lt;/font&gt;" style="rhombus;whiteSpace=wrap;html=1;strokeWidth=2;" vertex="1" parent="1">
          <mxGeometry x="350" y="-770" width="150" height="100" as="geometry" />
        </mxCell>
        <mxCell id="v4jeL5m17RULmQWQD_8q-9" style="edgeStyle=orthogonalEdgeStyle;rounded=0;orthogonalLoop=1;jettySize=auto;html=1;exitX=0.5;exitY=0;exitDx=0;exitDy=0;entryX=1;entryY=0.5;entryDx=0;entryDy=0;" edge="1" parent="1" source="v4jeL5m17RULmQWQD_8q-6" target="v4jeL5m17RULmQWQD_8q-2">
          <mxGeometry relative="1" as="geometry" />
        </mxCell>
        <mxCell id="v4jeL5m17RULmQWQD_8q-6" value="&lt;font style=&quot;font-size: 24px;&quot;&gt;REGISTER&lt;/font&gt;" style="whiteSpace=wrap;html=1;strokeWidth=2;" vertex="1" parent="1">
          <mxGeometry x="600" y="-750" width="195" height="60" as="geometry" />
        </mxCell>
        <mxCell id="v4jeL5m17RULmQWQD_8q-15" value="" style="edgeStyle=orthogonalEdgeStyle;rounded=0;orthogonalLoop=1;jettySize=auto;html=1;" edge="1" parent="1" source="v4jeL5m17RULmQWQD_8q-10" target="v4jeL5m17RULmQWQD_8q-14">
          <mxGeometry relative="1" as="geometry" />
        </mxCell>
        <mxCell id="v4jeL5m17RULmQWQD_8q-10" value="&lt;font style=&quot;font-size: 24px;&quot;&gt;VIEW PRODUCTS&lt;/font&gt;" style="whiteSpace=wrap;html=1;strokeWidth=2;" vertex="1" parent="1">
          <mxGeometry x="320" y="-590" width="210" height="60" as="geometry" />
        </mxCell>
        <mxCell id="v4jeL5m17RULmQWQD_8q-17" value="" style="edgeStyle=orthogonalEdgeStyle;rounded=0;orthogonalLoop=1;jettySize=auto;html=1;" edge="1" parent="1" source="v4jeL5m17RULmQWQD_8q-14" target="v4jeL5m17RULmQWQD_8q-16">
          <mxGeometry relative="1" as="geometry" />
        </mxCell>
        <mxCell id="v4jeL5m17RULmQWQD_8q-14" value="&lt;span style=&quot;font-size: 24px;&quot;&gt;ADD TO CART&lt;/span&gt;" style="whiteSpace=wrap;html=1;strokeWidth=2;" vertex="1" parent="1">
          <mxGeometry x="320" y="-450" width="210" height="60" as="geometry" />
        </mxCell>
        <mxCell id="v4jeL5m17RULmQWQD_8q-19" value="" style="edgeStyle=orthogonalEdgeStyle;rounded=0;orthogonalLoop=1;jettySize=auto;html=1;" edge="1" parent="1" source="v4jeL5m17RULmQWQD_8q-16" target="v4jeL5m17RULmQWQD_8q-18">
          <mxGeometry relative="1" as="geometry" />
        </mxCell>
        <mxCell id="v4jeL5m17RULmQWQD_8q-16" value="&lt;span style=&quot;font-size: 24px;&quot;&gt;PLACE ORDER&lt;/span&gt;" style="whiteSpace=wrap;html=1;strokeWidth=2;" vertex="1" parent="1">
          <mxGeometry x="320" y="-310" width="210" height="60" as="geometry" />
        </mxCell>
        <mxCell id="v4jeL5m17RULmQWQD_8q-20" style="edgeStyle=orthogonalEdgeStyle;rounded=0;orthogonalLoop=1;jettySize=auto;html=1;exitX=0.5;exitY=0;exitDx=0;exitDy=0;entryX=0;entryY=0.5;entryDx=0;entryDy=0;" edge="1" parent="1" source="v4jeL5m17RULmQWQD_8q-18" target="v4jeL5m17RULmQWQD_8q-10">
          <mxGeometry relative="1" as="geometry" />
        </mxCell>
        <mxCell id="v4jeL5m17RULmQWQD_8q-21" value="&lt;font style=&quot;font-size: 18px;&quot;&gt;NO&lt;/font&gt;" style="edgeLabel;html=1;align=center;verticalAlign=middle;resizable=0;points=[];" vertex="1" connectable="0" parent="v4jeL5m17RULmQWQD_8q-20">
          <mxGeometry x="-0.4636" y="3" relative="1" as="geometry">
            <mxPoint x="1" as="offset" />
          </mxGeometry>
        </mxCell>
        <mxCell id="v4jeL5m17RULmQWQD_8q-25" value="" style="edgeStyle=orthogonalEdgeStyle;rounded=0;orthogonalLoop=1;jettySize=auto;html=1;" edge="1" parent="1" source="v4jeL5m17RULmQWQD_8q-18" target="v4jeL5m17RULmQWQD_8q-24">
          <mxGeometry relative="1" as="geometry" />
        </mxCell>
        <mxCell id="v4jeL5m17RULmQWQD_8q-18" value="&lt;font style=&quot;font-size: 24px;&quot;&gt;MAKE PAYMENT&lt;/font&gt;" style="rhombus;whiteSpace=wrap;html=1;strokeWidth=2;" vertex="1" parent="1">
          <mxGeometry x="20" y="-350" width="155" height="140" as="geometry" />
        </mxCell>
        <mxCell id="v4jeL5m17RULmQWQD_8q-24" value="&lt;font style=&quot;font-size: 24px;&quot;&gt;ORDER PLACED&lt;/font&gt;" style="whiteSpace=wrap;html=1;strokeWidth=2;" vertex="1" parent="1">
          <mxGeometry x="80" y="-130" width="200" height="60" as="geometry" />
        </mxCell>
        <mxCell id="v4jeL5m17RULmQWQD_8q-26" value="&lt;font style=&quot;font-size: 24px;&quot;&gt;END&lt;/font&gt;" style="strokeWidth=2;html=1;shape=mxgraph.flowchart.terminator;whiteSpace=wrap;" vertex="1" parent="1">
          <mxGeometry x="360" y="-130" width="160" height="60" as="geometry" />
        </mxCell>
        <mxCell id="v4jeL5m17RULmQWQD_8q-27" style="edgeStyle=orthogonalEdgeStyle;rounded=0;orthogonalLoop=1;jettySize=auto;html=1;exitX=1;exitY=0.5;exitDx=0;exitDy=0;entryX=0;entryY=0.5;entryDx=0;entryDy=0;entryPerimeter=0;" edge="1" parent="1" source="v4jeL5m17RULmQWQD_8q-24" target="v4jeL5m17RULmQWQD_8q-26">
          <mxGeometry relative="1" as="geometry" />
        </mxCell>
      </root>
    </mxGraphModel>
  </diagram>
</mxfile>
